<svg width="135" height="40" viewBox="0 0 135 40" fill="none" xmlns="http://www.w3.org/2000/svg">
<path d="M130 0H5C2.23858 0 0 2.23858 0 5V35C0 37.7614 2.23858 40 5 40H130C132.761 40 135 37.7614 135 35V5C135 2.23858 132.761 0 130 0Z" fill="black"/>
<path d="M130 0.8C131.114 0.8 132.182 1.2425 132.97 2.03015C133.758 2.8178 134.2 3.88609 134.2 5V35C134.2 36.1139 133.758 37.1822 132.97 37.9698C132.182 38.7575 131.114 39.2 130 39.2H5C3.88609 39.2 2.8178 38.7575 2.03015 37.9698C1.2425 37.1822 0.8 36.1139 0.8 35V5C0.8 3.88609 1.2425 2.8178 2.03015 2.03015C2.8178 1.2425 3.88609 0.8 5 0.8H130ZM130 0H5C3.67392 0 2.40215 0.526784 1.46447 1.46447C0.526784 2.40215 0 3.67392 0 5V35C0 36.3261 0.526784 37.5979 1.46447 38.5355C2.40215 39.4732 3.67392 40 5 40H130C131.326 40 132.598 39.4732 133.536 38.5355C134.473 37.5979 135 36.3261 135 35V5C135 3.67392 134.473 2.40215 133.536 1.46447C132.598 0.526784 131.326 0 130 0Z" fill="#A7A6A6"/>
<path d="M47.42 10.24C47.4364 10.6067 47.3784 10.973 47.2495 11.3167C47.1206 11.6604 46.9235 11.9745 46.67 12.24C46.3859 12.5333 46.0431 12.7633 45.664 12.9149C45.2848 13.0666 44.878 13.1365 44.47 13.12C44.0596 13.1291 43.6518 13.054 43.2717 12.8992C42.8915 12.7444 42.5472 12.5132 42.26 12.22C41.6773 11.624 41.351 10.8235 41.351 9.99C41.351 9.15646 41.6773 8.35603 42.26 7.76C42.7055 7.32468 43.2697 7.03074 43.8818 6.91509C44.4938 6.79944 45.1264 6.86725 45.7 7.11C46.0606 7.25823 46.3822 7.48749 46.64 7.78L46.11 8.31C45.9114 8.07077 45.6598 7.88114 45.3751 7.75615C45.0904 7.63117 44.7805 7.57428 44.47 7.59C44.078 7.59271 43.6927 7.69139 43.3476 7.87742C43.0026 8.06344 42.7084 8.33114 42.4907 8.65713C42.273 8.98311 42.1385 9.35746 42.0989 9.74744C42.0593 10.1374 42.1158 10.5312 42.2635 10.8943C42.4112 11.2574 42.6456 11.5787 42.9462 11.8303C43.2467 12.0819 43.6044 12.2561 43.9878 12.3375C44.3712 12.419 44.7688 12.4053 45.1457 12.2977C45.5226 12.19 45.8674 11.9917 46.15 11.72C46.4554 11.3851 46.6326 10.9529 46.65 10.5H44.47V9.78H47.38C47.4028 9.93237 47.4161 10.086 47.42 10.24Z" fill="white" stroke="white" stroke-width="0.2" stroke-miterlimit="10"/>
<path d="M52 7.74H49.3V9.64H51.76V10.36H49.3V12.26H52V13H48.52V7H52V7.74Z" fill="white" stroke="white" stroke-width="0.2" stroke-miterlimit="10"/>
<path d="M55.28 13H54.51V7.74H52.83V7H57V7.74H55.28V13Z" fill="white" stroke="white" stroke-width="0.2" stroke-miterlimit="10"/>
<path d="M59.94 13V7H60.71V13H59.94Z" fill="white" stroke="white" stroke-width="0.2" stroke-miterlimit="10"/>
<path d="M64.13 13H63.36V7.74H61.68V7H65.8V7.74H64.13V13Z" fill="white" stroke="white" stroke-width="0.2" stroke-miterlimit="10"/>
<path d="M73.61 12.22C73.3212 12.5091 72.9782 12.7384 72.6007 12.8948C72.2233 13.0513 71.8186 13.1318 71.41 13.1318C71.0014 13.1318 70.5968 13.0513 70.2193 12.8948C69.8418 12.7384 69.4988 12.5091 69.21 12.22C68.6447 11.619 68.3299 10.8251 68.3299 10C68.3299 9.17494 68.6447 8.38095 69.21 7.78C69.4926 7.4828 69.8344 7.24823 70.2134 7.09148C70.5924 6.93472 71 6.85927 71.41 6.87C71.8194 6.86352 72.2258 6.94092 72.6041 7.09742C72.9825 7.25392 73.3248 7.48622 73.61 7.78C73.8976 8.07249 74.1236 8.41963 74.2747 8.80093C74.4259 9.18222 74.4991 9.58994 74.49 10C74.5031 10.4106 74.4318 10.8195 74.2804 11.2013C74.129 11.5832 73.9009 11.9299 73.61 12.22ZM69.78 11.72C69.993 11.9359 70.2468 12.1073 70.5266 12.2243C70.8064 12.3413 71.1067 12.4015 71.41 12.4015C71.7133 12.4015 72.0136 12.3413 72.2934 12.2243C72.5732 12.1073 72.827 11.9359 73.04 11.72C73.4715 11.2511 73.711 10.6372 73.711 10C73.711 9.3628 73.4715 8.74887 73.04 8.28C72.827 8.06412 72.5732 7.89271 72.2934 7.77572C72.0136 7.65872 71.7133 7.59848 71.41 7.59848C71.1067 7.59848 70.8064 7.65872 70.5266 7.77572C70.2468 7.89271 69.993 8.06412 69.78 8.28C69.3485 8.74887 69.109 9.3628 69.109 10C69.109 10.6372 69.3485 11.2511 69.78 11.72Z" fill="white" stroke="white" stroke-width="0.2" stroke-miterlimit="10"/>
<path d="M75.58 13V7H76.51L79.43 11.67V10.51V7H80.2V13H79.4L76.35 8.11V9.26V13H75.58Z" fill="white" stroke="white" stroke-width="0.2" stroke-miterlimit="10"/>
<path d="M68.14 21.75C67.2975 21.752 66.4744 22.0038 65.775 22.4735C65.0755 22.9432 64.5311 23.6098 64.2105 24.389C63.8899 25.1682 63.8075 26.0249 63.9738 26.8509C64.1402 27.6768 64.5477 28.435 65.1448 29.0293C65.742 29.6237 66.502 30.0276 67.3287 30.1901C68.1555 30.3525 69.0118 30.2661 69.7895 29.9419C70.5671 29.6176 71.2312 29.0701 71.6976 28.3684C72.1641 27.6668 72.412 26.8425 72.41 26C72.4182 25.4379 72.3131 24.88 72.1012 24.3593C71.8892 23.8387 71.5747 23.3661 71.1763 22.9695C70.7778 22.573 70.3037 22.2606 69.7821 22.0511C69.2605 21.8416 68.702 21.7392 68.14 21.75ZM68.14 28.58C67.6236 28.6161 67.1082 28.496 66.661 28.2354C66.2137 27.9747 65.8552 27.5856 65.632 27.1184C65.4089 26.6513 65.3314 26.1279 65.4097 25.6161C65.488 25.1044 65.7184 24.6281 66.071 24.249C66.4236 23.87 66.882 23.6058 67.3868 23.4908C67.8915 23.3758 68.4192 23.4152 68.9012 23.6041C69.3832 23.7929 69.7973 24.1224 70.0895 24.5497C70.3818 24.977 70.5387 25.4823 70.54 26C70.5561 26.328 70.5064 26.6559 70.3937 26.9644C70.2811 27.2729 70.1078 27.5557 69.8841 27.7962C69.6605 28.0366 69.3909 28.2299 69.0914 28.3645C68.7918 28.4991 68.4683 28.5724 68.14 28.58ZM58.82 21.75C57.9775 21.752 57.1544 22.0038 56.455 22.4735C55.7555 22.9432 55.2111 23.6098 54.8905 24.389C54.5699 25.1682 54.4875 26.0249 54.6538 26.8509C54.8202 27.6768 55.2277 28.435 55.8248 29.0293C56.422 29.6237 57.182 30.0276 58.0087 30.1901C58.8355 30.3525 59.6918 30.2661 60.4695 29.9419C61.2471 29.6176 61.9112 29.0701 62.3776 28.3684C62.8441 27.6668 63.092 26.8425 63.09 26C63.0982 25.4379 62.9931 24.88 62.7812 24.3593C62.5692 23.8387 62.2547 23.3661 61.8563 22.9695C61.4578 22.573 60.9837 22.2606 60.4621 22.0511C59.9405 21.8416 59.382 21.7392 58.82 21.75ZM58.82 28.58C58.3036 28.6161 57.7882 28.496 57.341 28.2354C56.8937 27.9747 56.5352 27.5856 56.312 27.1184C56.0889 26.6513 56.0114 26.1279 56.0897 25.6161C56.168 25.1044 56.3984 24.6281 56.751 24.249C57.1036 23.87 57.562 23.6058 58.0668 23.4908C58.5715 23.3758 59.0992 23.4152 59.5812 23.6041C60.0632 23.7929 60.4773 24.1224 60.7695 24.5497C61.0618 24.977 61.2187 25.4823 61.22 26C61.2361 26.328 61.1864 26.6559 61.0737 26.9644C60.9611 27.2729 60.7878 27.5557 60.5641 27.7962C60.3405 28.0366 60.0709 28.2299 59.7714 28.3645C59.4718 28.4991 59.1483 28.5724 58.82 28.58ZM47.74 23.06V24.86H52.06C51.9923 25.7078 51.6399 26.5078 51.06 27.13C50.6267 27.5715 50.1055 27.9171 49.5301 28.1445C48.9548 28.3719 48.3381 28.476 47.72 28.45C46.447 28.45 45.2261 27.9443 44.3259 27.0441C43.4257 26.1439 42.92 24.923 42.92 23.65C42.92 22.377 43.4257 21.1561 44.3259 20.2559C45.2261 19.3557 46.447 18.85 47.72 18.85C48.9405 18.8318 50.1189 19.2953 51 20.14L52.27 18.87C51.674 18.2805 50.9663 17.8159 50.1885 17.5034C49.4106 17.1909 48.5782 17.0367 47.74 17.05C46.851 17.0154 45.9642 17.1606 45.1326 17.477C44.3011 17.7933 43.542 18.2743 42.9008 18.891C42.2596 19.5078 41.7494 20.2476 41.401 21.0662C41.0526 21.8848 40.873 22.7653 40.873 23.655C40.873 24.5447 41.0526 25.4252 41.401 26.2438C41.7494 27.0624 42.2596 27.8022 42.9008 28.419C43.542 29.0357 44.3011 29.5167 45.1326 29.833C45.9642 30.1494 46.851 30.2946 47.74 30.26C48.5954 30.2942 49.4484 30.147 50.2429 29.8282C51.0374 29.5093 51.7555 29.026 52.35 28.41C53.4001 27.2564 53.9597 25.7392 53.91 24.18C53.9136 23.8047 53.8835 23.4299 53.82 23.06H47.74ZM93.05 24.46C92.7892 23.6927 92.3015 23.0228 91.6515 22.5388C91.0015 22.0549 90.2198 21.7798 89.41 21.75C88.863 21.7489 88.3216 21.8601 87.8192 22.0765C87.3169 22.293 86.8643 22.6102 86.4894 23.0085C86.1145 23.4069 85.8253 23.8778 85.6396 24.3924C85.454 24.9069 85.3758 25.4541 85.41 26C85.4015 26.9128 85.6885 27.804 86.2281 28.5403C86.7678 29.2766 87.5312 29.8185 88.4043 30.0851C89.2773 30.3518 90.2133 30.3288 91.0722 30.0197C91.9312 29.7106 92.6671 29.1319 93.17 28.37L91.72 27.37C91.5039 27.7303 91.1973 28.0278 90.8307 28.233C90.464 28.4383 90.0501 28.5441 89.63 28.54C89.1966 28.5579 88.7679 28.4443 88.4002 28.214C88.0326 27.9838 87.7432 27.6477 87.57 27.25L93.26 24.9L93.05 24.46ZM87.25 25.88C87.2297 25.5694 87.2716 25.2578 87.3733 24.9636C87.4749 24.6694 87.6342 24.3984 87.8419 24.1665C88.0496 23.9346 88.3014 23.7465 88.5827 23.6132C88.864 23.4798 89.169 23.404 89.48 23.39C89.8022 23.3703 90.1231 23.4462 90.4023 23.6081C90.6816 23.7699 90.9069 24.0106 91.05 24.3L87.25 25.88ZM82.63 30H84.5V17.5H82.63V30ZM79.57 22.7H79.5C79.2207 22.3819 78.8759 22.1278 78.4893 21.9552C78.1027 21.7826 77.6834 21.6956 77.26 21.7C76.1672 21.753 75.1367 22.2244 74.382 23.0166C73.6273 23.8087 73.2063 24.8609 73.2063 25.955C73.2063 27.0491 73.6273 28.1013 74.382 28.8934C75.1367 29.6856 76.1672 30.157 77.26 30.21C77.684 30.2185 78.1046 30.1333 78.4918 29.9604C78.879 29.7875 79.2233 29.5313 79.5 29.21H79.57V29.82C79.57 31.45 78.7 32.32 77.3 32.32C76.8323 32.3097 76.3783 32.1607 75.9955 31.8918C75.6126 31.623 75.3184 31.2464 75.15 30.81L73.53 31.48C73.8295 32.2322 74.3503 32.8759 75.0234 33.3258C75.6966 33.7758 76.4904 34.0109 77.3 34C79.49 34 81.3 32.71 81.3 29.57V22H79.57V22.7ZM77.42 28.58C76.7648 28.5392 76.1498 28.2501 75.7003 27.7717C75.2508 27.2932 75.0006 26.6615 75.0006 26.005C75.0006 25.3485 75.2508 24.7168 75.7003 24.2383C76.1498 23.7599 76.7648 23.4708 77.42 23.43C77.7402 23.4438 78.0544 23.5219 78.3439 23.6596C78.6333 23.7974 78.8921 23.9919 79.1048 24.2317C79.3175 24.4714 79.4798 24.7516 79.5821 25.0554C79.6843 25.3591 79.7244 25.6804 79.7 26C79.7273 26.3207 79.6892 26.6436 79.5882 26.9492C79.4871 27.2547 79.3251 27.5366 79.112 27.7778C78.8988 28.019 78.639 28.2144 78.3482 28.3523C78.0574 28.4902 77.7416 28.5676 77.42 28.58ZM101.81 17.5H97.33V30H99.2V25.26H101.81C102.343 25.2983 102.878 25.2264 103.382 25.0487C103.886 24.8711 104.348 24.5915 104.739 24.2275C105.13 23.8635 105.442 23.4227 105.655 22.9328C105.869 22.4429 105.979 21.9143 105.979 21.38C105.979 20.8457 105.869 20.3171 105.655 19.8272C105.442 19.3373 105.13 18.8965 104.739 18.5325C104.348 18.1685 103.886 17.8889 103.382 17.7113C102.878 17.5336 102.343 17.4617 101.81 17.5ZM101.81 23.5H99.2V19.24H101.85C102.131 19.24 102.409 19.2954 102.669 19.4029C102.929 19.5104 103.164 19.6681 103.363 19.8668C103.562 20.0655 103.72 20.3014 103.827 20.5611C103.935 20.8207 103.99 21.099 103.99 21.38C103.99 21.661 103.935 21.9393 103.827 22.1989C103.72 22.4586 103.562 22.6945 103.363 22.8932C103.164 23.0919 102.929 23.2496 102.669 23.3571C102.409 23.4646 102.131 23.52 101.85 23.52L101.81 23.5ZM113.35 21.71C112.669 21.668 111.991 21.8265 111.399 22.166C110.807 22.5055 110.328 23.011 110.02 23.62L111.67 24.31C111.837 24.0094 112.087 23.7635 112.39 23.602C112.694 23.4405 113.038 23.3704 113.38 23.4C113.617 23.3723 113.858 23.3921 114.088 23.4583C114.317 23.5245 114.531 23.6358 114.718 23.7857C114.904 23.9356 115.058 24.121 115.172 24.3312C115.286 24.5414 115.356 24.7722 115.38 25.01V25.13C114.779 24.8139 114.109 24.6492 113.43 24.65C111.65 24.65 109.83 25.65 109.83 27.47C109.848 27.8568 109.943 28.2362 110.11 28.5855C110.277 28.9349 110.513 29.2471 110.803 29.5036C111.093 29.7601 111.431 29.9557 111.799 30.0788C112.166 30.2019 112.554 30.2499 112.94 30.22C113.409 30.246 113.877 30.1466 114.295 29.9323C114.713 29.7179 115.067 29.3961 115.32 29H115.38V30H117.18V25.19C117.18 23 115.52 21.73 113.39 21.73L113.35 21.71ZM113.12 28.56C112.51 28.56 111.66 28.25 111.66 27.5C111.66 26.5 112.72 26.16 113.66 26.16C114.254 26.1453 114.841 26.2904 115.36 26.58C115.297 27.1231 115.04 27.625 114.635 27.9927C114.231 28.3605 113.707 28.5691 113.16 28.58L113.12 28.56ZM123.74 22L121.6 27.42H121.54L119.32 22H117.32L120.65 29.58L118.75 33.79H120.7L125.82 22H123.74ZM106.94 30H108.8V17.5H106.94V30Z" fill="white"/>
<path d="M10.44 7.55C10.2731 7.74981 10.1482 7.98115 10.0726 8.23026C9.99698 8.47937 9.9723 8.74115 10 9V31.1C9.96597 31.6104 10.1349 32.1135 10.47 32.5L10.54 32.57L22.89 20.15V19.85L10.51 7.48L10.44 7.55Z" fill="#5BC9F4"/>
<path d="M27 24.27L22.88 20.15V19.85L27 15.73L27.1 15.78L32 18.56C33.39 19.35 33.39 20.65 32 21.44L27.11 24.22L27 24.27Z" fill="url(#paint0_linear_36_35)"/>
<path d="M27.11 24.22L22.89 20L10.44 32.45C10.7229 32.7019 11.0855 32.846 11.4641 32.857C11.8427 32.8679 12.213 32.7451 12.51 32.51L27.11 24.22Z" fill="url(#paint1_linear_36_35)"/>
<path d="M27.11 15.78L12.51 7.49C12.213 7.25491 11.8427 7.13206 11.4641 7.14303C11.0855 7.154 10.7229 7.29811 10.44 7.55L22.89 20L27.11 15.78Z" fill="url(#paint2_linear_36_35)"/>
<defs>
<linearGradient id="paint0_linear_36_35" x1="31.09" y1="20" x2="6.91001" y2="20" gradientUnits="userSpaceOnUse">
<stop stop-color="#FEE000"/>
<stop offset="0.42" stop-color="#FBBC0E"/>
<stop offset="0.78" stop-color="#FAA418"/>
<stop offset="1" stop-color="#F99B1C"/>
</linearGradient>
<linearGradient id="paint1_linear_36_35" x1="24.81" y1="22.29" x2="2.08" y2="45.03" gradientUnits="userSpaceOnUse">
<stop stop-color="#EF4547"/>
<stop offset="1" stop-color="#C6186D"/>
</linearGradient>
<linearGradient id="paint2_linear_36_35" x1="1.97" y1="-5.13" x2="20.54" y2="13.43" gradientUnits="userSpaceOnUse">
<stop stop-color="#279E6F"/>
<stop offset="0.04" stop-color="#2BA06F"/>
<stop offset="0.46" stop-color="#53B26C"/>
<stop offset="0.8" stop-color="#6BBD6A"/>
<stop offset="1" stop-color="#74C169"/>
</linearGradient>
</defs>
</svg>
